<?xml version="1.0" encoding="UTF-8" standalone="no"?>
<!-- Created with Inkscape (http://www.inkscape.org/) -->

<svg
   xmlns:dc="http://purl.org/dc/elements/1.1/"
   xmlns:cc="http://creativecommons.org/ns#"
   xmlns:rdf="http://www.w3.org/1999/02/22-rdf-syntax-ns#"
   xmlns:svg="http://www.w3.org/2000/svg"
   xmlns="http://www.w3.org/2000/svg"
   xmlns:sodipodi="http://sodipodi.sourceforge.net/DTD/sodipodi-0.dtd"
   xmlns:inkscape="http://www.inkscape.org/namespaces/inkscape"
   width="250"
   height="250"
   viewBox="0 0 66.145832 66.145835"
   version="1.1"
   id="svg8"
   inkscape:version="0.92.4 (5da689c313, 2019-01-14)"
   sodipodi:docname="waLogo.svg">
  <defs
     id="defs2" />
  <sodipodi:namedview
     id="base"
     pagecolor="#ffffff"
     bordercolor="#666666"
     borderopacity="1.0"
     inkscape:pageopacity="0.0"
     inkscape:pageshadow="2"
     inkscape:zoom="1.4"
     inkscape:cx="373.46653"
     inkscape:cy="147.31548"
     inkscape:document-units="mm"
     inkscape:current-layer="layer1"
     showgrid="false"
     units="px"
     inkscape:window-width="2560"
     inkscape:window-height="1377"
     inkscape:window-x="1912"
     inkscape:window-y="301"
     inkscape:window-maximized="1" />
  <metadata
     id="metadata5">
    <rdf:RDF>
      <cc:Work
         rdf:about="">
        <dc:format>image/svg+xml</dc:format>
        <dc:type
           rdf:resource="http://purl.org/dc/dcmitype/StillImage" />
        <dc:title></dc:title>
      </cc:Work>
    </rdf:RDF>
  </metadata>
  <g
     inkscape:label="Layer 1"
     inkscape:groupmode="layer"
     id="layer1"
     transform="translate(0,-230.85415)">
    <path
       style="fill:#000000;stroke-width:0.26458332"
       d="m 30.107303,285.05108 c -1.25185,-0.39654 -2.25211,-1.29577 -2.70757,-2.43408 -0.36233,-0.90555 -0.4331,-1.95209 -0.3938,-5.82354 l 0.0479,-4.71961 -3.00973,-3.98277 -3.00974,-3.98278 -4.7625,-0.0528 c -4.52218,-0.0502 -4.81414,-0.0849 -5.78593,-0.68902 -1.7263403,-1.07316 -2.0076503,-2.07767 -2.0076503,-7.16901 0,-5.09134 0.28131,-6.09585 2.0076503,-7.16901 0.98195,-0.61041 1.21649,-0.6362 5.78593,-0.6362 4.56945,0 4.80399,0.0258 5.78593,0.6362 1.24239,0.77232 2.00538,2.31089 2.01347,4.06016 l 0.006,1.25677 h 8.06979 8.0698 l 0.006,-1.25677 c 0.008,-1.74927 0.77108,-3.28784 2.01347,-4.06016 0.98193,-0.61041 1.21647,-0.6362 5.78591,-0.6362 4.56945,0 4.80399,0.0258 5.78593,0.6362 1.72635,1.07316 2.00766,2.07767 2.00766,7.16901 0,5.09134 -0.28131,6.09585 -2.00766,7.16901 -0.98194,0.61041 -1.21648,0.6362 -5.78593,0.6362 -4.56944,0 -4.80398,-0.0258 -5.78593,-0.6362 -1.24238,-0.77231 -2.00538,-2.31088 -2.01346,-4.06015 l -0.006,-1.25677 h -8.0463 -8.04629 l -0.0947,1.65364 -0.0947,1.65365 3.04776,4.04714 3.04776,4.04713 4.7625,0.0539 c 4.5212,0.0512 4.81435,0.0861 5.78593,0.6901 1.72635,1.07316 2.00766,2.07767 2.00766,7.16901 0,5.09134 -0.28131,6.09585 -2.00766,7.16901 -0.96134,0.5976 -1.2883,0.6395 -5.38906,0.69058 -2.40109,0.0299 -4.68812,-0.0478 -5.08228,-0.17263 z m 8.62585,-4.13673 c 0.20906,-0.54479 0.20906,-6.55568 0,-7.10047 -0.13608,-0.3546 -0.7378,-0.41851 -3.94044,-0.41851 -3.20265,0 -3.80437,0.0639 -3.94044,0.41851 -0.20906,0.54479 -0.20906,6.55568 0,7.10047 0.13607,0.35461 0.73779,0.41852 3.94044,0.41852 3.20264,0 3.80436,-0.0639 3.94044,-0.41852 z m -18.52083,-21.16666 c 0.20905,-0.54479 0.20905,-6.55568 0,-7.10047 -0.24038,-0.62642 -7.64051,-0.62642 -7.88089,0 -0.0883,0.23018 -0.1606,1.82779 -0.1606,3.55023 0,1.72245 0.0723,3.32006 0.1606,3.55024 0.24038,0.62641 7.64051,0.62641 7.88089,0 z m 31.75,0 c 0.20905,-0.54479 0.20905,-6.55568 0,-7.10047 -0.24038,-0.62642 -7.64051,-0.62642 -7.88089,0 -0.20905,0.54479 -0.20905,6.55568 0,7.10047 0.24038,0.62641 7.64051,0.62641 7.88089,0 z"
       id="path4579"
       inkscape:connector-curvature="0" />
  </g>
</svg>
